<svg width="1200" height="900" viewBox="0 0 1200 900" fill="none" xmlns="http://www.w3.org/2000/svg">
  <rect width="1200" height="900" rx="48" fill="#EFF6FF"/>
  <rect x="40" y="40" width="1120" height="820" rx="40" fill="url(#bg)"/>
  <circle cx="1034" cy="162" r="120" fill="#BFDBFE" opacity="0.75"/>
  <circle cx="162" cy="760" r="138" fill="#DBEAFE" opacity="0.85"/>
  <rect x="120" y="126" width="286" height="42" rx="21" fill="#DBEAFE"/>
  <text x="148" y="154" fill="#1D4ED8" font-family="Arial, sans-serif" font-size="28" font-weight="700">Electronics</text>
  <text x="120" y="258" fill="#0F172A" font-family="Arial, sans-serif" font-size="72" font-weight="700">TechFix</text>
  <text x="120" y="336" fill="#0F172A" font-family="Arial, sans-serif" font-size="72" font-weight="700">Electronics</text>
  <text x="120" y="408" fill="#334155" font-family="Arial, sans-serif" font-size="34">TV, CCTV and home theatre setup with expert diagnostics</text>
  <rect x="118" y="500" width="390" height="212" rx="30" fill="#0F172A"/>
  <rect x="148" y="530" width="330" height="152" rx="18" fill="#111827" stroke="#60A5FA" stroke-width="6"/>
  <rect x="192" y="696" width="242" height="14" rx="7" fill="#1E40AF"/>
  <path d="M302 564H420" stroke="#60A5FA" stroke-width="10" stroke-linecap="round"/>
  <path d="M302 602H420" stroke="#38BDF8" stroke-width="10" stroke-linecap="round"/>
  <path d="M302 640H380" stroke="#93C5FD" stroke-width="10" stroke-linecap="round"/>
  <circle cx="230" cy="601" r="34" stroke="#38BDF8" stroke-width="8"/>
  <path d="M221 601L229 609L242 592" stroke="#38BDF8" stroke-width="8" stroke-linecap="round" stroke-linejoin="round"/>
  <rect x="730" y="214" width="290" height="390" rx="34" fill="#F8FAFC" stroke="#93C5FD" stroke-width="12"/>
  <rect x="770" y="256" width="210" height="132" rx="18" fill="#DBEAFE"/>
  <circle cx="876" cy="454" r="54" stroke="#2563EB" stroke-width="10"/>
  <path d="M876 392V516" stroke="#2563EB" stroke-width="10" stroke-linecap="round"/>
  <path d="M814 454H938" stroke="#2563EB" stroke-width="10" stroke-linecap="round"/>
  <path d="M782 556H968" stroke="#CBD5E1" stroke-width="10" stroke-linecap="round"/>
  <path d="M782 588H920" stroke="#CBD5E1" stroke-width="10" stroke-linecap="round"/>
  <rect x="858" y="622" width="182" height="92" rx="22" fill="#FFFFFF" stroke="#60A5FA" stroke-width="8"/>
  <path d="M904 668H994" stroke="#2563EB" stroke-width="10" stroke-linecap="round"/>
  <path d="M950 624V712" stroke="#2563EB" stroke-width="10" stroke-linecap="round"/>
  <text x="748" y="760" fill="#1E293B" font-family="Arial, sans-serif" font-size="30" font-weight="700">Reliable device repair and installation</text>
  <defs>
    <linearGradient id="bg" x1="82" y1="88" x2="1118" y2="842" gradientUnits="userSpaceOnUse">
      <stop stop-color="#F8FAFC"/>
      <stop offset="1" stop-color="#DBEAFE"/>
    </linearGradient>
  </defs>
</svg>
